<?xml version="1.0" encoding="iso-8859-1"?>
<!-- Generator: Adobe Illustrator 19.0.0, SVG Export Plug-In . SVG Version: 6.00 Build 0)  -->
<svg version="1.1" xmlns="http://www.w3.org/2000/svg" xmlns:xlink="http://www.w3.org/1999/xlink" x="0px" y="0px"
	 viewBox="0 0 512 512" style="enable-background:new 0 0 512 512;" xml:space="preserve">
<g id="B174_x2C__Bag_x2C__Budget_x2C__Business_x2C__Finance_x2C__Hand">
	<g>
		<g>
			<path style="fill:#9BC9FF;" d="M331.364,384.75l96-96c5.86-5.86,13.54-8.79,21.221-8.79c7.68,0,15.359,2.93,21.22,8.79
				c11.72,11.72,11.72,30.72,0,42.44L350.625,450.37c-12.74,12.739-30.37,19.359-48.351,18.17l-153.6-10.24l-36.42,26.42
				l-78.83-78.82l64.89-57.239c12.8-11.301,29.67-16.87,46.68-15.41l162.99,13.97c6.57,0.56,12.471,3.41,16.931,7.75
				c4.439,4.33,7.439,10.17,8.16,16.72C333.585,376.31,332.935,380.75,331.364,384.75z"/>
			<path style="fill:#FFFFFF;" d="M93.594,54.72c13.81,0,25,11.191,25,25c0,13.811-11.19,25-25,25c-13.81,0-25-11.189-25-25
				C68.594,65.91,79.784,54.72,93.594,54.72z"/>
			<path style="fill:#FFFFFF;" d="M363.595,34.72c8.28,0,15,6.721,15,15c0,8.28-6.72,15-15,15c-8.28,0-15-6.72-15-15
				C348.595,41.44,355.315,34.72,363.595,34.72z"/>
			<path style="fill:#FFFFFF;" d="M453.595,194.72c8.28,0,15,6.721,15,15c0,8.28-6.72,15-15,15c-8.28,0-15-6.72-15-15
				C438.595,201.44,445.315,194.72,453.595,194.72z"/>
			<path style="fill:#FFFFFF;" d="M294.715,29.49c2.87-1.44,6.08,1.21,5.21,4.3l-11.19,39.78h-44.83l-11.18-39.78
				c-0.87-3.09,2.34-5.74,5.21-4.3l14.05,7.02c1.42,0.71,3.14,0.44,4.27-0.689l7.46-7.46c1.439-1.44,3.78-1.44,5.22,0l7.46,7.46
				c1.12,1.13,2.84,1.399,4.26,0.689L294.715,29.49z"/>
			<path style="fill:#FFFFFF;" d="M290.815,97.479c0,0,17.35-5.05,17.35-11.27v-0.69c0-6.6-5.35-11.949-11.96-11.949h-7.471h-44.83
				h-7.47c-6.6,0-11.95,5.35-11.95,11.949v0.69c0,6.21,14.75,11.32,14.75,11.37c-56.41,29-62.05,98.84-58.37,147.09
				c2.16,28.27,25.81,50.05,54.16,50.05h69.24c30.12,0,54.53-24.65,54.33-54.77C358.095,165.3,325.515,104.29,290.815,97.479z"/>
			<rect x="408.595" y="114.72" style="fill:#1E81CE;" width="20" height="20"/>
			<rect x="388.595" y="134.72" style="fill:#1E81CE;" width="20" height="20"/>
			<path style="fill:#1E81CE;" d="M272.265,211.39c7.811,2.761,10.96,6.36,10.96,12.271c0,5.83-4.13,10.819-11.68,12.13v6.69h-6.431
				v-6.23c-4.39-0.2-8.66-1.38-11.15-2.82l1.97-7.67c2.751,1.5,6.621,2.88,10.891,2.88c3.739,0,6.3-1.439,6.3-4.069
				c0-2.49-2.101-4.061-6.96-5.7c-7.021-2.36-11.801-5.641-11.801-12.01c0-5.771,4.061-10.29,11.08-11.67v-6.23h6.431v5.77
				c4.39,0.2,7.35,1.11,9.51,2.16l-1.9,7.42c-1.71-0.73-4.72-2.23-9.449-2.23c-4.261,0-5.641,1.83-5.641,3.67
				C264.395,207.91,266.694,209.29,272.265,211.39z"/>
			<rect x="78.594" y="284.72" style="fill:#1E81CE;" width="20" height="20"/>
			<rect x="78.594" y="244.72" style="fill:#1E81CE;" width="20" height="20"/>
			<rect x="78.594" y="204.72" style="fill:#1E81CE;" width="20" height="20"/>
			<rect x="58.594" y="304.72" style="fill:#1E81CE;" width="20" height="20"/>
			<rect x="58.594" y="264.72" style="fill:#1E81CE;" width="20" height="20"/>
			<rect x="58.594" y="224.72" style="fill:#1E81CE;" width="20" height="20"/>
			<path style="fill:#1E81CE;" d="M112.257,494.72c-2.577,0-5.137-0.992-7.074-2.929l-78.83-78.82
				c-1.952-1.952-3.011-4.624-2.924-7.384c0.086-2.76,1.31-5.36,3.38-7.187l64.89-57.239c14.773-13.045,34.506-19.561,54.15-17.875
				l162.989,13.97c8.629,0.735,16.817,4.48,23.051,10.547c3.904,3.808,6.912,8.407,8.848,13.434l79.557-79.558
				c7.558-7.557,17.604-11.719,28.292-11.719c10.687,0,20.733,4.162,28.291,11.719c15.6,15.6,15.6,40.982,0,56.582l-119.18,119.181
				c-14.776,14.774-35.215,22.452-56.082,21.077l-149.996-10l-33.492,24.296C116.364,494.093,114.306,494.72,112.257,494.72z
				 M48.024,406.355l65.266,65.259l29.512-21.409c1.892-1.372,4.206-2.037,6.537-1.883l153.6,10.24
				c15.116,0.996,29.915-4.565,40.614-15.264l119.18-119.181c7.802-7.802,7.802-20.495,0-28.297
				c-3.779-3.779-8.804-5.861-14.148-5.861c-5.345,0-10.37,2.082-14.149,5.861l-94.627,94.627
				c-6.326,13.812-20.466,22.538-35.814,21.873l-107.245-4.671c-5.518-0.24-9.796-4.907-9.556-10.426
				c0.24-5.518,4.906-9.818,10.426-9.555l107.24,4.67c6.538,0.279,12.583-3.057,15.863-8.518c0.266-1.527,0.887-3.005,1.864-4.299
				c0.621-2.177,0.803-4.43,0.549-6.737c-0.444-4.034-2.292-7.818-5.203-10.657c-2.92-2.842-6.758-4.602-10.797-4.945
				l-162.996-13.97c-14.217-1.224-28.508,3.497-39.207,12.942L48.024,406.355z"/>
			<path style="fill:#1E81CE;" d="M148.67,468.3c-2.328,0-4.666-0.808-6.56-2.456l-50.08-43.58
				c-4.166-3.626-4.604-9.942-0.979-14.108c3.625-4.166,9.942-4.604,14.108-0.979l50.08,43.58c4.167,3.626,4.605,9.942,0.979,14.108
				C154.241,467.137,151.463,468.3,148.67,468.3z"/>
			<path style="fill:#1E81CE;" d="M93.594,114.72c-19.299,0-35-15.701-35-35c0-19.299,15.701-35,35-35c19.299,0,35,15.701,35,35
				C128.594,99.019,112.893,114.72,93.594,114.72z M93.594,64.72c-8.271,0-15,6.729-15,15c0,8.271,6.729,15,15,15s15-6.729,15-15
				C108.594,71.449,101.865,64.72,93.594,64.72z"/>
			<path style="fill:#1E81CE;" d="M453.595,234.72c-13.785,0-25-11.215-25-25c0-13.785,11.215-25,25-25c13.785,0,25,11.215,25,25
				C478.595,223.505,467.38,234.72,453.595,234.72z M453.595,204.72c-2.757,0-5,2.243-5,5c0,2.757,2.243,5,5,5c2.757,0,5-2.243,5-5
				C458.595,206.963,456.352,204.72,453.595,204.72z"/>
			<path style="fill:#1E81CE;" d="M363.595,74.72c-13.785,0-25-11.215-25-25c0-13.785,11.215-25,25-25c13.785,0,25,11.215,25,25
				C388.595,63.505,377.38,74.72,363.595,74.72z M363.595,44.72c-2.757,0-5,2.243-5,5c0,2.757,2.243,5,5,5c2.757,0,5-2.243,5-5
				C368.595,46.963,366.352,44.72,363.595,44.72z"/>
			<path style="fill:#1E81CE;" d="M268.595,265.72c-5.522,0-10-4.478-10-10c0-5.522,4.478-10,10-10c16.542,0,30-13.458,30-30
				c0-5.522,4.478-10,10-10c5.522,0,10,4.478,10,10C318.595,243.29,296.165,265.72,268.595,265.72z"/>
			<path style="fill:#1E81CE;" d="M241.402,255.05c-2.432,0-4.869-0.881-6.794-2.664c-10.177-9.429-16.014-22.793-16.014-36.666
				c0-27.57,22.43-50,50-50c12.654,0,24.728,4.738,33.994,13.342c4.048,3.757,4.282,10.085,0.525,14.132
				c-3.759,4.049-10.085,4.282-14.133,0.525c-5.556-5.158-12.796-7.999-20.387-7.999c-16.542,0-30,13.458-30,30
				c0,8.444,3.412,16.256,9.606,21.994c4.051,3.754,4.292,10.081,0.54,14.132C246.77,253.973,244.089,255.05,241.402,255.05z"/>
			<path style="fill:#1E81CE;" d="M304.265,304.72h-69.24c-16.242,0-31.756-6.064-43.685-17.076
				c-11.948-11.029-19.209-26.021-20.446-42.212c-2.435-31.914-0.069-60.295,7.031-84.355c8.093-27.428,22.184-48.634,41.99-63.257
				c-3.612-3.487-5.43-7.365-5.43-11.609v-0.69c0-12.103,9.847-21.949,21.95-21.949h7.47c5.523,0,10,4.477,10,10
				c0,5.522-4.477,10-10,10h-7.47c-0.631,0-1.192,0.301-1.549,0.767c1.324,0.92,3.747,2.295,7.652,3.795
				c4.938,1.897,6.697,6.124,6.697,9.448c0,3.747-2.095,7.18-5.428,8.894c-50.466,25.944-56.661,89.059-52.971,137.437
				c1.749,22.883,21.159,40.809,44.189,40.809h69.24c11.859,0,23.012-4.652,31.403-13.1c8.415-8.472,13.006-19.695,12.927-31.603
				c-0.227-33.798-7.341-66.584-20.033-92.318c-11.154-22.614-25.985-37.72-39.673-40.405c-4.526-0.889-7.858-4.758-8.065-9.366
				c-0.206-4.608,2.767-8.76,7.195-10.049c3.3-0.97,7.11-2.569,9.414-3.876c-0.336-0.271-0.764-0.432-1.228-0.432h-7.471
				c-5.522,0-10-4.478-10-10c0-5.523,4.478-10,10-10h7.471c12.108,0,21.96,9.847,21.96,21.949v0.69c0,4.222-1.85,7.739-4.749,10.661
				c12.408,8.779,23.761,23.081,33.082,41.98c14.003,28.391,21.851,64.271,22.097,101.031c0.114,17.276-6.54,33.553-18.738,45.832
				C337.683,297.971,321.491,304.72,304.265,304.72z"/>
			<path style="fill:#1E81CE;" d="M288.734,83.57h-44.83c-4.481,0-8.415-2.98-9.627-7.295l-11.18-39.78
				c-1.172-4.161-0.353-8.521,2.249-11.957c2.585-3.413,6.668-5.451,10.923-5.451c2.113,0,4.239,0.507,6.149,1.465l9.977,4.985
				l4.248-4.248c2.584-2.585,6.023-4.009,9.681-4.009c3.659,0,7.098,1.424,9.683,4.01l4.244,4.244l9.997-4.991
				c1.893-0.949,4.019-1.456,6.131-1.456c4.256,0,8.339,2.038,10.924,5.451c2.602,3.436,3.421,7.796,2.248,11.962l-11.19,39.778
				C297.147,80.591,293.214,83.57,288.734,83.57z M251.481,63.57h29.678l5.28-18.771l-1.318,0.658
				c-1.889,0.944-4.007,1.444-6.123,1.444c-3.675,0.001-7.121-1.435-9.705-4.041l-2.968-2.968l-2.999,2.999
				c-2.588,2.586-6.026,4.01-9.685,4.01c-2.116,0-4.235-0.5-6.129-1.447l-1.306-0.652L251.481,63.57z"/>
			<path style="fill:#1E81CE;" d="M230.464,149.32h-29.89c-5.523,0-10-4.477-10-10c0-5.523,4.477-10,10-10h29.89
				c5.523,0,10,4.477,10,10C240.464,144.843,235.987,149.32,230.464,149.32z"/>
			<path style="fill:#1E81CE;" d="M344.024,173.22h-17.93c-5.522,0-10-4.477-10-10c0-5.522,4.478-10,10-10h17.93
				c5.522,0,10,4.478,10,10C354.024,168.743,349.547,173.22,344.024,173.22z"/>
		</g>
	</g>
</g>
<g id="Layer_1">
</g>
</svg>
