<svg xmlns="http://www.w3.org/2000/svg" viewBox="0 0 64 64"><g id="Layer_27" data-name="Layer 27"><path d="M18.41,21l-3.73,5.3-1.13-1.59a1,1,0,1,0-1.63,1.15l1.94,2.76a1,1,0,0,0,.82.42,1,1,0,0,0,.81-.42L20,22.1A1,1,0,1,0,18.41,21Z" id="id_101" style="fill: rgb(255, 255, 255);"></path><path d="M24,26.3H41.06a1,1,0,0,0,0-2H24a1,1,0,0,0,0,2Z" id="id_102" style="fill: rgb(255, 255, 255);"></path><path d="M18.41,33.21l-3.73,5.3-1.13-1.59a1,1,0,0,0-1.39-.25,1,1,0,0,0-.24,1.4l1.94,2.76a1,1,0,0,0,.82.42,1,1,0,0,0,.81-.42L20,34.36a1,1,0,1,0-1.63-1.15Z" id="id_103" style="fill: rgb(255, 255, 255);"></path><path d="M18.41,45.47l-3.73,5.3-1.13-1.59a1,1,0,0,0-1.39-.25,1,1,0,0,0-.24,1.4l1.94,2.76a1,1,0,0,0,.82.42,1,1,0,0,0,.81-.42L20,46.62a1,1,0,1,0-1.63-1.15Z" id="id_104" style="fill: rgb(255, 255, 255);"></path><path d="M45.28,46.42H43.17a1.7,1.7,0,0,1-1.74-1.65,1.6,1.6,0,0,1,.5-1.16,1.81,1.81,0,0,1,1.24-.49h4a1,1,0,0,0,0-2H45.23v-2a1,1,0,0,0-2,0v2h-.06a3.76,3.76,0,0,0-2.63,1.05,3.66,3.66,0,0,0-1.11,2.6,3.7,3.7,0,0,0,3.74,3.65h2.11A1.7,1.7,0,0,1,47,50.06a1.6,1.6,0,0,1-.5,1.16,1.81,1.81,0,0,1-1.24.49h-4a1,1,0,0,0,0,2h1.95v2a1,1,0,0,0,2,0v-2h.05a3.76,3.76,0,0,0,2.63-1.05,3.63,3.63,0,0,0-2.63-6.24Z" id="id_105" style="fill: rgb(255, 255, 255);"></path><path d="M48.19,34.43V13.3a5.05,5.05,0,0,0-5-5.05H33.36A6.24,6.24,0,0,0,21,8.25h-9.8a5.05,5.05,0,0,0-5,5.05V56a5,5,0,0,0,5,5h33a13.58,13.58,0,0,0,4-26.57Zm-14-24.18v4.21H20.23V10.25ZM27.19,5a4.25,4.25,0,0,1,4.12,3.25H23.07A4.25,4.25,0,0,1,27.19,5Zm-16,54a3,3,0,0,1-3-3V13.3a3,3,0,0,1,3-3.05h7v5.21a1,1,0,0,0,1,1H35.16a1,1,0,0,0,1-1V10.25h7a3,3,0,0,1,3,3.05V34a14.13,14.13,0,0,0-2-.16,13.5,13.5,0,0,0-8.13,2.73H24a1,1,0,1,0,0,2H34a13.48,13.48,0,0,0-3.31,8.86c0,.47,0,.94.07,1.4H24a1,1,0,0,0,0,2h7.1A13.64,13.64,0,0,0,37.17,59Zm33,0A11.59,11.59,0,1,1,55.81,47.42,11.6,11.6,0,0,1,44.23,59Z" id="id_106" style="fill: rgb(255, 255, 255);"></path></g></svg>